<svg xmlns="http://www.w3.org/2000/svg" viewBox="0 0 440 146"><defs><style>.b{clip-path:url(#a)}.d{fill:#54301a}</style><clipPath id="a"><path fill="none" d="M-41-43.1h522v232.49H-41z"/></clipPath></defs><path d="M85 38.45c-4.09-3-11.55-5.77-24.18 1.32-.84.48-1.68 1-2.41 1.32-1.92-.84-4.21-1.68-6.74-2.65-11.07-3.85-18.4-7-26.7-12.39C15 19.81 9.52 13.07 7 2.61 6.51.56 6 .68 5.31 3.93.13 27.38 7.47 44.1 21.9 53.12c.48.24.72.36.24-.36C11.2 41.46 5.79 29.07 7.35 13.07c6.37 13 25.86 23 42.58 28.51 1.56.48 3.13 1.08 4.45 1.56-5.53 2.53-10.71 4.21-17.68 6.86C16 57.57 4 73.33 3.26 96.42c0 .6.24.72.48.12 7.94-9.26 15.15-16.48 24.54-21.65a72.28 72.28 0 0 1 24.9-7.7c5.53-.6 7.46-5.05 7.1-7.46 5.41 1 10-2.41 9.38-8.18-.36-3.37-2.53-6.13-7.46-8.78 10.1-6.13 17.68-4.33 20.69-1.8a40.13 40.13 0 0 0 6.25 4.45C78.55 49.4 78.68 61.06 66.41 68c-11.07 6.25-19.12 2.53-26.82 7.34-.36.24-.24.36.12.24C48 73 57.63 76.34 68 71c6-3.13 10.1-8.54 15.15-16.12 4.09-6.13 9.5-7.82 14.43-9-5.41-2-8.66-4.57-12.51-7.46M65.81 54.81c-1.56 3-7.22 1.68-10.34.24-.36-.24-.48 0-.24.24 3 4.33 2 8.18-2.53 8.66-23 2.77-36.44 13.59-45.22 23.94 3.84-18.77 16.23-29.59 30.66-34.77a201.2 201.2 0 0 0 20.45-8.18c8.06 4 8.42 7.46 7.22 9.86" fill="#009f93"/><g class="b"><path class="d" d="M76.87 119.52v.12c0 .12-.12.12-.12.24a15.57 15.57 0 0 1-3.49 5.41 8.16 8.16 0 0 1-5.65 2.77c-2.29 0-3.37-1.32-3.37-4.09a10.59 10.59 0 0 1 .24-2c-2.77 4.09-5.89 6.13-9.14 6.13a5.59 5.59 0 0 1-4.69-2.29 8.37 8.37 0 0 1-1.44-5.05c0-4.21 1.8-8.78 5.41-13.83 3.85-5.29 7.82-8.06 11.79-8.06a5.26 5.26 0 0 1 4.33 2.29c.36-1.2 1-1.92 2-1.92 1.92 0 2.89.36 2.89 1 0 .12-.48 1.68-1.44 4.45-3.73 11.19-5.53 17.56-5.53 19.24 0 .84.24 1.2.84 1.2 1.2 0 2.53-1.08 4.09-3.25a32.46 32.46 0 0 1 2.41-3.33 1 1 0 0 1 .84 1m-7.58-15.76a2.9 2.9 0 0 0-.84-2.16 3 3 0 0 0-2-1c-2.65 0-5.41 2.77-8.18 8.42-2.65 5.05-4 9.14-4 12.15 0 2.77 1 4.09 2.77 4.09 2.65 0 5.17-2.65 7.82-7.94a51.59 51.59 0 0 0 4.09-11.43c.12-1.08.36-1.8.36-2.16"/></g><g class="b"><path class="d" d="M116 94.5c0 8.3-5.65 12.51-17 12.51-1.44 0-3-.12-4.69-.24V118c0 4 .72 6.13 2 6.74.12 0 1 .36 2.65.84 1 .24 1.44.6 1.44 1s-.36.72-1 .72h-17c-.6 0-1-.24-1-.72s.48-.72 1.44-1a12.16 12.16 0 0 0 2.65-.84c1.32-.6 2-2.89 2-6.74V92.33c0-4-.72-6.13-2-6.74-.12 0-1-.36-2.65-.84-1-.24-1.44-.6-1.44-1s.36-.72 1-.72h18.52c4.33 0 7.82.84 10.46 2.65 3.13 1.92 4.57 4.81 4.57 8.78m-7.34 0q0-5.23-2.53-7.58c-1.68-1.56-4.21-2.29-7.7-2.16q-4 0-4 1.8v17.8a24.68 24.68 0 0 0 3.37.36c7.22-.12 10.82-3.49 10.82-10.22"/></g><g class="b"><path class="d" d="M131.48 126.49c0 .48-.36.72-1 .72H117c-.6 0-1-.24-1-.72s.48-.6 1.44-.84a6.41 6.41 0 0 0 2.65-1c.48-.36.72-1.2.84-2.77V89.09a4 4 0 0 0-.36-2.16c-.24-.36-.84-.48-1.92-.48-1.56 0-2.41-.24-2.41-.72s.48-1 1.44-1.08a47.91 47.91 0 0 0 7.1-2 1.53 1.53 0 0 1 .72-.12.69.69 0 0 1 .72.72 17.17 17.17 0 0 1 .12 3v31.87c0 4.21.24 6.49.84 6.74a17 17 0 0 0 2.65.84c1.2.12 1.68.48 1.56.84"/></g><g class="b"><path class="d" d="M161.43 122.88c-1.08 3.25-3.13 4.81-5.89 4.81-3 0-4.81-1.56-5.53-4.57-3.13 3-6.37 4.57-9.62 4.57a6.23 6.23 0 0 1-6.74-6.74c0-3.85 2-6.62 6.13-8.54 2.29-1.08 5.77-1.8 10.22-2.41.12-4-.24-6.49-1-7.7s-2-1.56-4.21-1.44q-2.71 0-3.61 1.8c-.24 1.08-.6 2-.84 3.13a2.56 2.56 0 0 1-2.65 1.68c-1.8 0-2.77-.84-2.77-2.41 0-2 1.32-3.61 3.85-4.81a16.63 16.63 0 0 1 6.62-1.2c6.74 0 10.1 2.41 10.1 7v15.4c0 2.29.6 3.37 1.92 3.37a2.35 2.35 0 0 0 2-1.32c.6-.84 1-1.32 1.2-1.32a.92.92 0 0 1 .6.24c.12.12.24.36.12.48m-11.43-4v-7a25.24 25.24 0 0 0-7 2.16c-2.53 1.44-3.73 3.37-3.73 5.89a4.35 4.35 0 0 0 1.2 3.25 3.91 3.91 0 0 0 3.13 1.2 6.71 6.71 0 0 0 4.45-1.56 5.23 5.23 0 0 0 1.92-4"/></g><g class="b"><path class="d" d="M186 122.88c-2.77 3.49-6 5.29-10 5.29a12.78 12.78 0 0 1-9.86-4 14.71 14.71 0 0 1-3.73-10.34 14.89 14.89 0 0 1 4.09-10.7 14.69 14.69 0 0 1 16.12-3c2.29 1.08 3.49 2.41 3.49 4.09s-.84 2.41-2.53 2.41a2.78 2.78 0 0 1-2.41-1.44c-.6-1-1.08-1.92-1.56-2.89a3.72 3.72 0 0 0-3.13-1.44 6.76 6.76 0 0 0-6.25 4 17.07 17.07 0 0 0-1.68 7.82 16.46 16.46 0 0 0 2 8.42 7.36 7.36 0 0 0 7 4.21 7.84 7.84 0 0 0 5.05-1.92c.36-.24 1.32-1.32 3.13-3.25.24-.24.36-.36.6-.36s.6.36.6 1a4.53 4.53 0 0 1-1 2.16"/></g><g class="b"><path class="d" d="M214.59 111.1a.8.8 0 0 1-.72.84h-18.65c0 .6-.12 1.08-.12 1.32 0 3.37.6 6.25 1.92 8.3a7.75 7.75 0 0 0 7.1 4 10.46 10.46 0 0 0 5.29-1.32 30.44 30.44 0 0 0 3.37-3.13.92.92 0 0 1 .6-.24c.6 0 .84.24.84.72a2 2 0 0 1-.24.6c-2.41 4.09-6.13 6-11.31 6a13 13 0 0 1-9.86-4 13.71 13.71 0 0 1-3.73-10 15.39 15.39 0 0 1 3.73-10.58 12.44 12.44 0 0 1 10.1-4.45 11.49 11.49 0 0 1 7.82 2.77c2.53 2.16 3.73 5.29 3.85 9.14m-6-2.65c-.24-4.93-2.29-7.46-5.89-7.34q-6 0-7.22 8.66h7.82c3.61-.12 5.41-.48 5.29-1.32"/></g><g class="b"><path class="d" d="M251.27 85.84a2.87 2.87 0 0 1-.6 1.68 2.12 2.12 0 0 1-1.56.72c-1 0-1.8-.72-2.41-2.16s-1.32-2.16-2.29-2.16c-2.16 0-3.85 1.32-5.17 3.85a40.59 40.59 0 0 0-2.16 6.62l-1.68 5.89h6.25c.6 0 .84.24.84.72a1.2 1.2 0 0 1-1.32 1.32H235l-6.25 23.57a56 56 0 0 1-4.3 12.11c-2.65 4.69-5.77 7.1-9.74 7.1a6.12 6.12 0 0 1-3.85-1.2 4.05 4.05 0 0 1-1.68-3.37c0-1.92.84-2.77 2.53-2.77 1.2 0 1.92.48 2.16 1.32a12.57 12.57 0 0 1 .12 2.65c0 1 .48 1.44 1.32 1.44 1.8 0 3.37-1.56 4.69-4.81a48 48 0 0 0 2.16-7.1l7.7-29.11h-6.49c-.36 0-.6-.24-.6-.72 0-1 .36-1.32 1.2-1.32h6.25c1.68-5.41 3.25-9.38 4.93-11.79 2.77-4.33 6-6.62 10.1-6.62a9.71 9.71 0 0 1 4.09 1 3.7 3.7 0 0 1 1.92 3.13"/></g><g class="b"><path class="d" d="M261.86 109.17a22.73 22.73 0 0 1-3.86 12.39c-2.89 4.33-6.49 6.62-10.58 6.62a7 7 0 0 1-6.25-3.25 12 12 0 0 1-2-7 21.93 21.93 0 0 1 4-12.39c3-4.45 6.49-6.62 10.58-6.62a7 7 0 0 1 6.25 3.25 12 12 0 0 1 1.92 7m-4.57-3.37c0-3.37-1.2-5.17-3.49-5.17q-4 0-7.22 8.3a32 32 0 0 0-2.77 11.79c0 3.61 1.2 5.41 3.73 5.41s4.93-2.77 7.1-8.42a36.43 36.43 0 0 0 2.65-11.91"/></g><g class="b"><path class="d" d="M287.11 102.2a4.05 4.05 0 0 1-.6 2 2.07 2.07 0 0 1-1.68 1c-.72 0-1.2-.48-1.68-1.32s-.84-1.32-1.44-1.32c-2.29 0-6 8.18-11.31 24.66h-4.93c1.2-4.21 2.53-8.42 3.73-12.75 1.92-6.74 2.89-10.46 2.89-11.31s-.36-1.08-1-1.08c-1.08 0-2.16.72-3.25 2a29.17 29.17 0 0 0-2 3.49 1.16 1.16 0 0 1-1.08.72c-.6 0-1-.24-1-.72l.12-.24a12.87 12.87 0 0 1 3.25-5.65 7.69 7.69 0 0 1 5.65-2.77c2.16 0 3.37 1.32 3.37 3.85a9 9 0 0 1-.48 2.89c-.24 1-.6 1.92-.84 2.89 3.13-6.49 6.13-9.74 8.9-9.74a3.08 3.08 0 0 1 2.29 1 2.84 2.84 0 0 1 1.08 2.41"/></g><g class="b"><path class="d" d="M344.37 126.49c0 .48-.36.72-1 .72h-16.44c-.6 0-1-.24-1-.72s.48-.72 1.44-1a12.16 12.16 0 0 0 2.65-.84c1.32-.6 2-2.89 2-6.74V88.36l-16.12 38c-.36.84-.72 1.32-.84 1.32s-.6-.6-1.08-1.68l-14-31.87a24.13 24.13 0 0 0-2.29-4.33l.36 28.14a26.69 26.69 0 0 0 .24 4.09 3.2 3.2 0 0 0 1.8 2.65c.12 0 1 .36 2.65.84 1 .24 1.44.6 1.44 1s-.36.72-1 .72H290c-.6 0-1-.24-1-.72s.48-.72 1.44-1a12.16 12.16 0 0 0 2.65-.84 3.23 3.23 0 0 0 1.8-2.77 26 26 0 0 0 .24-4l.36-30.79a26.59 26.59 0 0 0-2.89-1.68 17 17 0 0 1-2.65-.84c-1-.24-1.44-.6-1.44-1s.36-.72 1-.72H297c2.89 0 4.45.12 4.93.36a9.58 9.58 0 0 1 1.92 3.25l13.35 31.27 14.43-34a1.67 1.67 0 0 1 1.68-1h10.22c.6 0 1 .24 1 .72s-.48.72-1.44 1a12.16 12.16 0 0 0-2.65.84c-1.32.6-2 2.89-2 6.74v25.62c0 4 .72 6.13 2 6.74.12 0 1 .36 2.65.84.84.48 1.32.72 1.32 1.2"/></g><g class="b"><path class="d" d="M374.19 113.26a14.89 14.89 0 0 1-4.09 10.7 13.78 13.78 0 0 1-10.46 4.21 13.63 13.63 0 0 1-14.31-14.43 14.42 14.42 0 0 1 4.09-10.58 14.14 14.14 0 0 1 10.46-4.09 13.78 13.78 0 0 1 10.22 4.09 13.51 13.51 0 0 1 4.09 10.1m-6 .36a19.24 19.24 0 0 0-1.68-8.54 7.55 7.55 0 0 0-13.71.12 19.05 19.05 0 0 0-1.68 8.42 18.5 18.5 0 0 0 1.68 8.3 7.08 7.08 0 0 0 6.86 4.21 7.27 7.27 0 0 0 6.86-4.21c1.2-2 1.68-4.81 1.68-8.3"/></g><g class="b"><path class="d" d="M428.32 126.49c0 .48-.36.72-1 .72h-13.43c-.6 0-1-.24-1-.72s.48-.6 1.44-.84a8 8 0 0 0 2.77-1c.48-.36.72-2.65.72-6.74v-8.06a12.3 12.3 0 0 0-1-5.53c-.84-1.56-2.41-2.41-4.81-2.41a7.74 7.74 0 0 0-5.17 1.8 5.75 5.75 0 0 0-2.16 4.57V118c0 2.53.12 3.85.12 4.09.12 1.44.36 2.41.72 2.65a13.59 13.59 0 0 0 2.65.84c1 .24 1.44.6 1.44 1s-.36.72-1 .72h-13.37c-.6 0-1-.24-1-.72s.48-.6 1.44-.84a8 8 0 0 0 2.77-1c.48-.36.72-2.65.72-6.74v-8.06a12.3 12.3 0 0 0-1-5.53c-.84-1.56-2.41-2.41-4.81-2.41a7.74 7.74 0 0 0-5.17 1.8 5.75 5.75 0 0 0-2.16 4.57V118c0 4.21.24 6.49.84 6.74a17 17 0 0 0 2.65.84c1 .24 1.44.6 1.44 1s-.36.72-1 .72H376.6c-.6 0-1-.24-1-.72s.48-.6 1.44-.84a5 5 0 0 0 2.65-1.08c.48-.48.72-2.65.72-6.74v-11.99a4 4 0 0 0-.36-2.16c-.24-.36-.84-.48-1.92-.48-1.56 0-2.41-.24-2.41-.72s.48-1 1.44-1.08a47.91 47.91 0 0 0 7.1-2 2.12 2.12 0 0 1 .72-.12c.36 0 .6.24.72.84 0 .36.12 1.44.12 3.25a9.64 9.64 0 0 1 4.09-2.89 14.48 14.48 0 0 1 5.41-1.08c4.33 0 7.1 1.56 8.18 4.81 2.53-3.25 6-4.81 10.46-4.81 3.37 0 5.77 1 7.1 2.77 1.44 2 2.16 5.29 2.16 9.62v6.37a26.65 26.65 0 0 0 .12 4.09c.12 1.44.36 2.41.72 2.65a13.59 13.59 0 0 0 2.65.84c1.08 0 1.56.36 1.56.72"/></g><g class="b"><path class="d" d="M435.78 126.85a3 3 0 0 1-5.17-2.16 3 3 0 0 1 1-2.16 2.82 2.82 0 0 1 2-.84 3.06 3.06 0 0 1 2.16 5.17m-4-4a2.55 2.55 0 1 0 4.33 1.8 2.65 2.65 0 0 0-.72-1.8 2.62 2.62 0 0 0-3.61 0m.48 3.49V123H434a5.21 5.21 0 0 1 .6.12 1 1 0 0 1 .48.84.82.82 0 0 1-.84.84.62.62 0 0 1 .48.24c.24.12.24.36.24.72v.6h-.84v-.84a.26.26 0 0 0-.24-.24h-.72v1.2h-.84zm1.56-2.77c-.12 0-.24-.12-.48-.12h-.24v1h.36c.24 0 .36 0 .48-.12a.44.44 0 0 0 .12-.36c0-.12 0-.24-.24-.36"/></g></svg>